<svg xmlns="http://www.w3.org/2000/svg" width="49.1" height="56" viewBox="0 0 49.1 56">
  <g id="book-health-check" transform="translate(308.2 936.6)">
    <path id="Path_908" d="M-273-899.2a12.729,12.729,0,0,0-5.1,3.4,5.911,5.911,0,0,0-1.9,4.3v5a1.216,1.216,0,0,0,1.2,1.2h2.3a1.216,1.216,0,0,0,1.2-1.2,1.216,1.216,0,0,0-1.2-1.2h-1.2v-3.9a3.631,3.631,0,0,1,1.1-2.6c2.1-2,3.7-2.9,4.7-2.9h0c1,0,2.6,1,4.7,2.9a3.631,3.631,0,0,1,1.1,2.6v3.9h-1.2a1.216,1.216,0,0,0-1.2,1.2,1.216,1.216,0,0,0,1.2,1.2h2.3a1.216,1.216,0,0,0,1.2-1.2h0v-5a5.912,5.912,0,0,0-1.9-4.3,13.217,13.217,0,0,0-5.1-3.3v-9.5a12.839,12.839,0,0,1,11.7,12.8v14a1.216,1.216,0,0,1-1.2,1.2H-307a1.216,1.216,0,0,1-1.2-1.2h0v-14a12.911,12.911,0,0,1,11.7-12.8v14.1a3.447,3.447,0,0,0-2.1,4.5,3.447,3.447,0,0,0,4.5,2.1,3.447,3.447,0,0,0,2.1-4.5,3.37,3.37,0,0,0-2.1-2.1v-14.2h21v9.5Zm-19.4-9.4,7.8,15.6c.7.7.7.7,1.6.5a1.2,1.2,0,0,0,.5-.5l7.8-15.6Z" fill="#fff"/>
    <path id="Path_909" d="M-283.5-911a12.761,12.761,0,0,1-12.8-12.8,12.761,12.761,0,0,1,12.8-12.8,12.761,12.761,0,0,1,12.8,12.8h0A12.761,12.761,0,0,1-283.5-911Z" fill="#fff"/>
  </g>
</svg>
