<svg xmlns="http://www.w3.org/2000/svg" width="46" height="55.8" viewBox="0 0 46 55.8">
  <g id="consult-online" transform="translate(-181.5 -15.5)">
    <path id="Path_1" data-name="Path 1" d="M196.8,71.3h15.6c8.4,0,15.1,0,15.1-8.3a15.057,15.057,0,0,0-9.2-13.9c0,.1.1.1.1.2a8.3,8.3,0,0,1,.6,2.1c.2.1.5.2.7.3a3.4,3.4,0,1,1-4.6,1.4,3.554,3.554,0,0,1,2.3-1.7,5.541,5.541,0,0,0-1.6-3,6.929,6.929,0,0,0-2-.3c-.1,2.8-9.2,9.5-9.2,9.5s-9.1-6.8-9.2-9.5a5.9,5.9,0,0,0-1.4.2,5.708,5.708,0,0,0-2,3,1.589,1.589,0,0,1,.8,1,7.558,7.558,0,0,1,3.6,4,1.387,1.387,0,0,1,0,.9,12.435,12.435,0,0,1,.9,4.5c0,2.2-.1,3.6-1.9,3.9a.908.908,0,0,1-.7.3h-1.4a.9.9,0,0,1-.9-.9h0a.9.9,0,0,1,.9-.9h1.4a.6.6,0,0,1,.4.1,1.094,1.094,0,0,0,.4-.2,5.629,5.629,0,0,0,.2-2.2,12.346,12.346,0,0,0-.8-4,2.652,2.652,0,0,1-.6-.5c-.9-1.9-2.2-3.1-3.3-3.1s-2.4,1.3-3.3,3.3a1.167,1.167,0,0,1-.6.6,10.8,10.8,0,0,0-.8,3.8,6.526,6.526,0,0,0,.2,2.2c0,.1.1.2.5.2a.6.6,0,0,1,.4-.1h1.4a.9.9,0,0,1,.9.9h0v.1a.9.9,0,0,1-.9.9h-1.4a1.072,1.072,0,0,1-.6-.2,2.4,2.4,0,0,1-1.6-.9,5.56,5.56,0,0,1-.5-3,11.932,11.932,0,0,1,.9-4.4,1.1,1.1,0,0,1,0-.8,9.348,9.348,0,0,1,2.1-3.1,7.165,7.165,0,0,1,1.5-1.1,1.818,1.818,0,0,1,1-1.1,6.049,6.049,0,0,1,.8-2.1,15.09,15.09,0,0,0-9.5,14.1c.2,7.8,6.9,7.8,15.3,7.8Z" fill="#fff"/>
    <path id="Path_2" data-name="Path 2" d="M219.8,54.6a1.7,1.7,0,1,1-3.4,0,1.7,1.7,0,1,1,3.4,0" fill="#fff"/>
    <path id="Path_3" data-name="Path 3" d="M191.9,37.4a3.4,3.4,0,0,0,1,.1h.7c1.5,6.7,5.8,11.6,10.9,11.6,4.6,0,8.6-3.9,10.4-9.6a7,7,0,0,0,2.1-2.1h.1a3.611,3.611,0,0,0,2.8-3.4V31.2a3.523,3.523,0,0,0-2.8-3.4v-.4c0-6.6-5.7-11.9-12.7-11.9s-12.7,5.3-12.7,11.9v.5a3.611,3.611,0,0,0-2.8,3.4V34a4.063,4.063,0,0,0,3,3.4Zm12.7,10c-5.1,0-9.4-5.6-10-12.8a3.424,3.424,0,0,1,1.6.8s-1.1-6.8,1.3-7.7a15.676,15.676,0,0,0,14.2,0c2.4,1,1.3,7.7,1.3,7.7a4.34,4.34,0,0,1,1.6-.7v.2c-.1.8-.2,1.5-.3,2.2a12.12,12.12,0,0,1-7.4,2.6,2.1,2.1,0,0,0-1.1-.4h-2.2a1.7,1.7,0,0,0,0,3.4h2.2a1.606,1.606,0,0,0,1.1-.5,14.437,14.437,0,0,0,6.1-1.5c-1.7,4-4.9,6.7-8.4,6.7Zm-.1-29.5a9.785,9.785,0,0,1,9.9,8.2,11.487,11.487,0,0,0-9.9-5.9,11.315,11.315,0,0,0-10,6.1,9.969,9.969,0,0,1,10-8.4Z" fill="#fff"/>
  </g>
</svg>
