<svg xmlns="http://www.w3.org/2000/svg" width="43" height="55.81" viewBox="0 0 43 55.81">
  <g id="health-record" transform="translate(931.1 815.41)">
    <path id="Path_837" d="M-919.4-801.1h19.2a1.493,1.493,0,0,0,1.4-1.3h0v-5.5a1.493,1.493,0,0,0-1.3-1.4h-3.2a6.45,6.45,0,0,0-6.7-6.1,6.33,6.33,0,0,0-6.1,6.1h-3.2a1.493,1.493,0,0,0-1.4,1.3h0v5.5a1.109,1.109,0,0,0,1.1,1.3.31.31,0,0,0,.2.1Zm9.6-10.3a2.476,2.476,0,0,1,2.5,2.5,2.476,2.476,0,0,1-2.5,2.5,2.476,2.476,0,0,1-2.5-2.5,2.476,2.476,0,0,1,2.5-2.5Z" fill="#fff"/>
    <path id="Path_838" d="M-891.2-805.4h-4.1v2.9a4.8,4.8,0,0,1-4.8,4.8h-19.2a4.8,4.8,0,0,1-4.8-4.8v-2.9H-928a3.116,3.116,0,0,0-3.1,3.1v39.6a3.116,3.116,0,0,0,3.1,3.1h36.8a3.116,3.116,0,0,0,3.1-3.1v-39.7A3.166,3.166,0,0,0-891.2-805.4Zm-8.6,28.9a1,1,0,0,1-1,1h-5.7v5.7a1,1,0,0,1-1,1h-4.3a1,1,0,0,1-1-1h0v-5.7h-5.7a1,1,0,0,1-1-1h0v-4.3a1,1,0,0,1,1-1h5.7v-5.8a1,1,0,0,1,1-1h4.3a1,1,0,0,1,1,1h0v5.7h5.7a1,1,0,0,1,1,1h0Z" fill="#fff"/>
  </g>
</svg>
