<svg xmlns="http://www.w3.org/2000/svg" width="69.797" height="55.825" viewBox="0 0 69.797 55.825">
  <g id="wellness" transform="translate(1255.493 804.85)">
    <path id="Path_841" d="M-1190.7-782.2a16.83,16.83,0,0,0-6.7-19.9,17.174,17.174,0,0,0-21.6,2.6l-3.6,3.5-3.9-3.9a17.142,17.142,0,0,0-24.1,0,14.418,14.418,0,0,0-2.2,2.7,17.271,17.271,0,0,0,2.5,21.6l26,25.9a2.354,2.354,0,0,0,3.3,0l6-6a17.857,17.857,0,0,0,11.2,4,18.074,18.074,0,0,0,18.1-18h0a17.122,17.122,0,0,0-5-12.5Zm-13,25.9a13.4,13.4,0,0,1-13.4-13.4,13.4,13.4,0,0,1,13.4-13.4,13.4,13.4,0,0,1,13.4,13.4,13.4,13.4,0,0,1-13.4,13.4Z" fill="#fff"/>
    <path id="Path_842" d="M-1200-774.9l-5.4,5.4-2-2a2.354,2.354,0,0,0-3.3,0,2.354,2.354,0,0,0,0,3.3h0l3.7,3.7a2.36,2.36,0,0,0,1.6.7,1.99,1.99,0,0,0,1.6-.7l7-7a2.354,2.354,0,0,0,0-3.3,2.233,2.233,0,0,0-3.2-.1Z" fill="#fff"/>
  </g>
</svg>
